<?xml version="1.0" encoding="utf-8"?>
<!-- Generator: Adobe Illustrator 14.0.0, SVG Export Plug-In . SVG Version: 6.00 Build 43363)  -->
<!DOCTYPE svg PUBLIC "-//W3C//DTD SVG 1.0//EN" "http://www.w3.org/TR/2001/REC-SVG-20010904/DTD/svg10.dtd">
<svg version="1.0" id="Layer_1" xmlns="http://www.w3.org/2000/svg" xmlns:xlink="http://www.w3.org/1999/xlink" x="0px" y="0px"
	 width="100px" height="90.682px" viewBox="0 0 100 90.682" enable-background="new 0 0 100 90.682" xml:space="preserve">
<path d="M8.769,18.373v43.646h-6.53C1.004,62.019,0,61.024,0,59.78V3.459C0,1.554,1.42,0,3.372,0h28.857
	c1.944,0,3.372,1.546,3.372,3.452v3.308h44.617c1.241,0,2.238,1.001,2.238,2.231v12.666H44.37v-3.315
	c0-1.901-1.42-3.451-3.379-3.451H12.147C10.188,14.89,8.769,16.461,8.769,18.373z"/>
<path d="M97.761,35.426H53.146v-3.308c0-1.905-1.429-3.452-3.381-3.452H20.914c-1.95,0-3.371,1.554-3.371,3.458V88.45
	c0,1.237,0.997,2.231,2.239,2.231h6.527h71.451c1.241,0,2.239-0.994,2.239-2.231V37.657C100,36.427,99.002,35.426,97.761,35.426z"/>
</svg>
